{
	"asset":{
		"generator":"Khronos glTF Blender I/O v3.5.30",
		"version":"2.0"
	},
	"scene":0,
	"scenes":[
		{
			"name":"Scene",
			"nodes":[
				0,
				1
			]
		}
	],
	"nodes":[
		{
			"mesh":0,
			"name":"path2.003",
			"rotation":[
				0,
				0.05972873792052269,
				0,
				0.9982146620750427
			],
			"scale":[
				0.8376120328903198,
				0.8376118540763855,
				0.8376120328903198
			],
			"translation":[
				0.034449100494384766,
				-0.13805162906646729,
				-3.845202922821045
			]
		},
		{
			"mesh":1,
			"name":"path340.010",
			"scale":[
				1.7970134019851685,
				1.7970134019851685,
				1.7970134019851685
			],
			"translation":[
				0.1709904670715332,
				0.030090689659118652,
				-2.7183871269226074
			]
		}
	],
	"animations":[
		{
			"channels":[
				{
					"sampler":0,
					"target":{
						"node":0,
						"path":"translation"
					}
				},
				{
					"sampler":1,
					"target":{
						"node":0,
						"path":"rotation"
					}
				},
				{
					"sampler":2,
					"target":{
						"node":0,
						"path":"scale"
					}
				}
			],
			"name":"path2.003",
			"samplers":[
				{
					"input":60,
					"interpolation":"LINEAR",
					"output":61
				},
				{
					"input":60,
					"interpolation":"LINEAR",
					"output":62
				},
				{
					"input":60,
					"interpolation":"LINEAR",
					"output":63
				}
			]
		},
		{
			"channels":[
				{
					"sampler":0,
					"target":{
						"node":1,
						"path":"translation"
					}
				},
				{
					"sampler":1,
					"target":{
						"node":1,
						"path":"rotation"
					}
				},
				{
					"sampler":2,
					"target":{
						"node":1,
						"path":"scale"
					}
				}
			],
			"name":"path340.010",
			"samplers":[
				{
					"input":60,
					"interpolation":"LINEAR",
					"output":64
				},
				{
					"input":60,
					"interpolation":"LINEAR",
					"output":65
				},
				{
					"input":60,
					"interpolation":"LINEAR",
					"output":66
				}
			]
		}
	],
	"materials":[
		{
			"doubleSided":true,
			"name":"SVGMat.4948",
			"pbrMetallicRoughness":{
				"baseColorFactor":[
					0,
					0,
					0,
					1
				],
				"metallicFactor":0,
				"roughnessFactor":0.4000000059604645
			}
		},
		{
			"doubleSided":true,
			"name":"White.001",
			"pbrMetallicRoughness":{
				"baseColorFactor":[
					0.9491621255874634,
					0.9617263078689575,
					1,
					1
				],
				"metallicFactor":0,
				"roughnessFactor":0.4000000059604645
			}
		},
		{
			"doubleSided":true,
			"name":"Black.001",
			"pbrMetallicRoughness":{
				"baseColorFactor":[
					0,
					0,
					0,
					1
				],
				"metallicFactor":0.009999999776482582,
				"roughnessFactor":0.4000000059604645
			}
		},
		{
			"doubleSided":true,
			"name":"Orange.001",
			"pbrMetallicRoughness":{
				"baseColorFactor":[
					1,
					0.15603765845298767,
					0,
					1
				],
				"metallicFactor":0,
				"roughnessFactor":0.4000000059604645
			}
		},
		{
			"doubleSided":true,
			"name":"SVGMat.4947",
			"pbrMetallicRoughness":{
				"baseColorFactor":[
					0.2158605009317398,
					0,
					0,
					1
				],
				"metallicFactor":0,
				"roughnessFactor":0.4000000059604645
			}
		},
		{
			"doubleSided":true,
			"name":"SVGMat.4946",
			"pbrMetallicRoughness":{
				"baseColorFactor":[
					0.2158605009317398,
					0,
					0,
					1
				],
				"metallicFactor":0,
				"roughnessFactor":0.4000000059604645
			}
		},
		{
			"doubleSided":true,
			"name":"SVGMat.4951",
			"pbrMetallicRoughness":{
				"metallicFactor":0,
				"roughnessFactor":0.4000000059604645
			}
		},
		{
			"doubleSided":true,
			"name":"SVGMat.4952",
			"pbrMetallicRoughness":{
				"metallicFactor":0,
				"roughnessFactor":0.4000000059604645
			}
		},
		{
			"doubleSided":true,
			"name":"SVGMat.4953",
			"pbrMetallicRoughness":{
				"metallicFactor":0,
				"roughnessFactor":0.4000000059604645
			}
		},
		{
			"doubleSided":true,
			"name":"SVGMat.4954",
			"pbrMetallicRoughness":{
				"baseColorFactor":[
					0,
					0,
					0,
					1
				],
				"metallicFactor":0,
				"roughnessFactor":0.4000000059604645
			}
		},
		{
			"doubleSided":true,
			"name":"SVGMat.4955",
			"pbrMetallicRoughness":{
				"baseColorFactor":[
					0,
					0,
					0,
					1
				],
				"metallicFactor":0,
				"roughnessFactor":0.4000000059604645
			}
		},
		{
			"doubleSided":true,
			"name":"SVGMat.4956",
			"pbrMetallicRoughness":{
				"baseColorFactor":[
					0,
					0,
					0,
					1
				],
				"metallicFactor":0,
				"roughnessFactor":0.4000000059604645
			}
		},
		{
			"doubleSided":true,
			"name":"SVGMat.4957",
			"pbrMetallicRoughness":{
				"baseColorFactor":[
					0,
					0,
					0,
					1
				],
				"metallicFactor":0,
				"roughnessFactor":0.4000000059604645
			}
		},
		{
			"doubleSided":true,
			"name":"SVGMat.4958",
			"pbrMetallicRoughness":{
				"baseColorFactor":[
					0,
					0,
					0,
					1
				],
				"metallicFactor":0,
				"roughnessFactor":0.4000000059604645
			}
		},
		{
			"doubleSided":true,
			"name":"SVGMat.4959",
			"pbrMetallicRoughness":{
				"baseColorFactor":[
					0,
					0,
					0,
					1
				],
				"metallicFactor":0,
				"roughnessFactor":0.4000000059604645
			}
		}
	],
	"meshes":[
		{
			"name":"path2.003",
			"primitives":[
				{
					"attributes":{
						"POSITION":0,
						"TEXCOORD_0":1,
						"NORMAL":2
					},
					"indices":3,
					"material":0
				},
				{
					"attributes":{
						"POSITION":4,
						"TEXCOORD_0":5,
						"NORMAL":6
					},
					"indices":7,
					"material":1
				},
				{
					"attributes":{
						"POSITION":8,
						"TEXCOORD_0":9,
						"NORMAL":10
					},
					"indices":11,
					"material":2
				},
				{
					"attributes":{
						"POSITION":12,
						"TEXCOORD_0":13,
						"NORMAL":14
					},
					"indices":15,
					"material":3
				},
				{
					"attributes":{
						"POSITION":16,
						"TEXCOORD_0":17,
						"NORMAL":18
					},
					"indices":19,
					"material":4
				},
				{
					"attributes":{
						"POSITION":20,
						"TEXCOORD_0":21,
						"NORMAL":22
					},
					"indices":23,
					"material":5
				}
			]
		},
		{
			"name":"path340.010",
			"primitives":[
				{
					"attributes":{
						"POSITION":24,
						"TEXCOORD_0":25,
						"NORMAL":26
					},
					"indices":27,
					"material":6
				},
				{
					"attributes":{
						"POSITION":28,
						"TEXCOORD_0":29,
						"NORMAL":30
					},
					"indices":31,
					"material":7
				},
				{
					"attributes":{
						"POSITION":32,
						"TEXCOORD_0":33,
						"NORMAL":34
					},
					"indices":35,
					"material":8
				},
				{
					"attributes":{
						"POSITION":36,
						"TEXCOORD_0":37,
						"NORMAL":38
					},
					"indices":39,
					"material":9
				},
				{
					"attributes":{
						"POSITION":40,
						"TEXCOORD_0":41,
						"NORMAL":42
					},
					"indices":43,
					"material":10
				},
				{
					"attributes":{
						"POSITION":44,
						"TEXCOORD_0":45,
						"NORMAL":46
					},
					"indices":47,
					"material":11
				},
				{
					"attributes":{
						"POSITION":48,
						"TEXCOORD_0":49,
						"NORMAL":50
					},
					"indices":51,
					"material":12
				},
				{
					"attributes":{
						"POSITION":52,
						"TEXCOORD_0":53,
						"NORMAL":54
					},
					"indices":55,
					"material":13
				},
				{
					"attributes":{
						"POSITION":56,
						"TEXCOORD_0":57,
						"NORMAL":58
					},
					"indices":59,
					"material":14
				}
			]
		}
	],
	"accessors":[
		{
			"bufferView":0,
			"componentType":5126,
			"count":2393,
			"max":[
				0.051631540060043335,
				0.3857734203338623,
				0.11923281103372574
			],
			"min":[
				-0.054534912109375,
				0.3299027979373932,
				-0.09342843294143677
			],
			"type":"VEC3"
		},
		{
			"bufferView":1,
			"componentType":5126,
			"count":2393,
			"type":"VEC2"
		},
		{
			"bufferView":2,
			"componentType":5126,
			"count":2393,
			"type":"VEC3"
		},
		{
			"bufferView":3,
			"componentType":5123,
			"count":5004,
			"type":"SCALAR"
		},
		{
			"bufferView":4,
			"componentType":5126,
			"count":11739,
			"max":[
				1.7055426836013794,
				0.3339776396751404,
				4.362177848815918
			],
			"min":[
				-1.894672155380249,
				0.01400744915008545,
				-0.12055112421512604
			],
			"type":"VEC3"
		},
		{
			"bufferView":5,
			"componentType":5126,
			"count":11739,
			"type":"VEC2"
		},
		{
			"bufferView":6,
			"componentType":5126,
			"count":11739,
			"type":"VEC3"
		},
		{
			"bufferView":7,
			"componentType":5123,
			"count":23364,
			"type":"SCALAR"
		},
		{
			"bufferView":8,
			"componentType":5126,
			"count":15960,
			"max":[
				0.1965329945087433,
				0.6211516857147217,
				4.742724418640137
			],
			"min":[
				-1.19227933883667,
				0.014007382094860077,
				0.24769610166549683
			],
			"type":"VEC3"
		},
		{
			"bufferView":9,
			"componentType":5126,
			"count":15960,
			"type":"VEC2"
		},
		{
			"bufferView":10,
			"componentType":5126,
			"count":15960,
			"type":"VEC3"
		},
		{
			"bufferView":11,
			"componentType":5123,
			"count":32376,
			"type":"SCALAR"
		},
		{
			"bufferView":12,
			"componentType":5126,
			"count":19499,
			"max":[
				2.148409843444824,
				0.3055143356323242,
				1.288607120513916
			],
			"min":[
				-2.355861186981201,
				0.01400783658027649,
				0.1569543182849884
			],
			"type":"VEC3"
		},
		{
			"bufferView":13,
			"componentType":5126,
			"count":19499,
			"type":"VEC2"
		},
		{
			"bufferView":14,
			"componentType":5126,
			"count":19499,
			"type":"VEC3"
		},
		{
			"bufferView":15,
			"componentType":5123,
			"count":41412,
			"type":"SCALAR"
		},
		{
			"bufferView":16,
			"componentType":5126,
			"count":2590,
			"max":[
				0.0034568356350064278,
				0.24909137189388275,
				0.27550268173217773
			],
			"min":[
				-0.006680299527943134,
				0.014007069170475006,
				0.22383156418800354
			],
			"type":"VEC3"
		},
		{
			"bufferView":17,
			"componentType":5126,
			"count":2590,
			"type":"VEC2"
		},
		{
			"bufferView":18,
			"componentType":5126,
			"count":2590,
			"type":"VEC3"
		},
		{
			"bufferView":19,
			"componentType":5123,
			"count":4980,
			"type":"SCALAR"
		},
		{
			"bufferView":20,
			"componentType":5126,
			"count":2595,
			"max":[
				0.04355394095182419,
				0.24909135699272156,
				0.27331772446632385
			],
			"min":[
				0.029176373034715652,
				0.014007054269313812,
				0.22995373606681824
			],
			"type":"VEC3"
		},
		{
			"bufferView":21,
			"componentType":5126,
			"count":2595,
			"type":"VEC2"
		},
		{
			"bufferView":22,
			"componentType":5126,
			"count":2595,
			"type":"VEC3"
		},
		{
			"bufferView":23,
			"componentType":5123,
			"count":4980,
			"type":"SCALAR"
		},
		{
			"bufferView":24,
			"componentType":5126,
			"count":808,
			"max":[
				0.05333603918552399,
				0.0036058977711945772,
				-0.04058687761425972
			],
			"min":[
				0.03818570449948311,
				0,
				-0.16361454129219055
			],
			"type":"VEC3"
		},
		{
			"bufferView":25,
			"componentType":5126,
			"count":808,
			"type":"VEC2"
		},
		{
			"bufferView":26,
			"componentType":5126,
			"count":808,
			"type":"VEC3"
		},
		{
			"bufferView":27,
			"componentType":5123,
			"count":1632,
			"type":"SCALAR"
		},
		{
			"bufferView":28,
			"componentType":5126,
			"count":1904,
			"max":[
				0.07342050224542618,
				0.0036058982368558645,
				-0.018392372876405716
			],
			"min":[
				0.018932480365037918,
				0,
				-0.15486067533493042
			],
			"type":"VEC3"
		},
		{
			"bufferView":29,
			"componentType":5126,
			"count":1904,
			"type":"VEC2"
		},
		{
			"bufferView":30,
			"componentType":5126,
			"count":1904,
			"type":"VEC3"
		},
		{
			"bufferView":31,
			"componentType":5123,
			"count":3876,
			"type":"SCALAR"
		},
		{
			"bufferView":32,
			"componentType":5126,
			"count":2756,
			"max":[
				0.09299168735742569,
				0.0036058982368558645,
				0.00036931326030753553
			],
			"min":[
				7.450582373280668e-09,
				0,
				-0.12321796268224716
			],
			"type":"VEC3"
		},
		{
			"bufferView":33,
			"componentType":5126,
			"count":2756,
			"type":"VEC2"
		},
		{
			"bufferView":34,
			"componentType":5126,
			"count":2756,
			"type":"VEC3"
		},
		{
			"bufferView":35,
			"componentType":5123,
			"count":5616,
			"type":"SCALAR"
		},
		{
			"bufferView":36,
			"componentType":5126,
			"count":1372,
			"max":[
				0.06757111847400665,
				0.006944690831005573,
				-0.008247517049312592
			],
			"min":[
				0.03284437954425812,
				0,
				-0.05425836145877838
			],
			"type":"VEC3"
		},
		{
			"bufferView":37,
			"componentType":5126,
			"count":1372,
			"type":"VEC2"
		},
		{
			"bufferView":38,
			"componentType":5126,
			"count":1372,
			"type":"VEC3"
		},
		{
			"bufferView":39,
			"componentType":5123,
			"count":3180,
			"type":"SCALAR"
		},
		{
			"bufferView":40,
			"componentType":5126,
			"count":5606,
			"max":[
				0.06964423507452011,
				0.006944690831005573,
				-0.05614142119884491
			],
			"min":[
				0.020476453006267548,
				0,
				-0.10579730570316315
			],
			"type":"VEC3"
		},
		{
			"bufferView":41,
			"componentType":5126,
			"count":5606,
			"type":"VEC2"
		},
		{
			"bufferView":42,
			"componentType":5126,
			"count":5606,
			"type":"VEC3"
		},
		{
			"bufferView":43,
			"componentType":5123,
			"count":13524,
			"type":"SCALAR"
		},
		{
			"bufferView":44,
			"componentType":5126,
			"count":4310,
			"max":[
				0.06997702270746231,
				0.006944691762328148,
				-0.10612508654594421
			],
			"min":[
				0.02296452596783638,
				0,
				-0.1520444005727768
			],
			"type":"VEC3"
		},
		{
			"bufferView":45,
			"componentType":5126,
			"count":4310,
			"type":"VEC2"
		},
		{
			"bufferView":46,
			"componentType":5126,
			"count":4310,
			"type":"VEC3"
		},
		{
			"bufferView":47,
			"componentType":5123,
			"count":9264,
			"type":"SCALAR"
		},
		{
			"bufferView":48,
			"componentType":5126,
			"count":2901,
			"max":[
				0.041663769632577896,
				0.006944690831005573,
				-0.024325862526893616
			],
			"min":[
				0.02442198246717453,
				0,
				-0.05214188992977142
			],
			"type":"VEC3"
		},
		{
			"bufferView":49,
			"componentType":5126,
			"count":2901,
			"type":"VEC2"
		},
		{
			"bufferView":50,
			"componentType":5126,
			"count":2901,
			"type":"VEC3"
		},
		{
			"bufferView":51,
			"componentType":5123,
			"count":7452,
			"type":"SCALAR"
		},
		{
			"bufferView":52,
			"componentType":5126,
			"count":1110,
			"max":[
				0.06277743726968765,
				0.006944690831005573,
				-0.09098619222640991
			],
			"min":[
				0.055084310472011566,
				0,
				-0.10204771906137466
			],
			"type":"VEC3"
		},
		{
			"bufferView":53,
			"componentType":5126,
			"count":1110,
			"type":"VEC2"
		},
		{
			"bufferView":54,
			"componentType":5126,
			"count":1110,
			"type":"VEC3"
		},
		{
			"bufferView":55,
			"componentType":5123,
			"count":2436,
			"type":"SCALAR"
		},
		{
			"bufferView":56,
			"componentType":5126,
			"count":1026,
			"max":[
				0.038178347051143646,
				0.006944690831005573,
				-0.09198557585477829
			],
			"min":[
				0.029777027666568756,
				0,
				-0.10152626782655716
			],
			"type":"VEC3"
		},
		{
			"bufferView":57,
			"componentType":5126,
			"count":1026,
			"type":"VEC2"
		},
		{
			"bufferView":58,
			"componentType":5126,
			"count":1026,
			"type":"VEC3"
		},
		{
			"bufferView":59,
			"componentType":5123,
			"count":2292,
			"type":"SCALAR"
		},
		{
			"bufferView":60,
			"componentType":5126,
			"count":3697,
			"max":[
				123.23333333333333
			],
			"min":[
				0.03333333333333333
			],
			"type":"SCALAR"
		},
		{
			"bufferView":61,
			"componentType":5126,
			"count":3697,
			"type":"VEC3"
		},
		{
			"bufferView":62,
			"componentType":5126,
			"count":3697,
			"type":"VEC4"
		},
		{
			"bufferView":63,
			"componentType":5126,
			"count":3697,
			"type":"VEC3"
		},
		{
			"bufferView":64,
			"componentType":5126,
			"count":3697,
			"type":"VEC3"
		},
		{
			"bufferView":65,
			"componentType":5126,
			"count":3697,
			"type":"VEC4"
		},
		{
			"bufferView":66,
			"componentType":5126,
			"count":3697,
			"type":"VEC3"
		}
	],
	"bufferViews":[
		{
			"buffer":0,
			"byteLength":28716,
			"byteOffset":0,
			"target":34962
		},
		{
			"buffer":0,
			"byteLength":19144,
			"byteOffset":28716,
			"target":34962
		},
		{
			"buffer":0,
			"byteLength":28716,
			"byteOffset":47860,
			"target":34962
		},
		{
			"buffer":0,
			"byteLength":10008,
			"byteOffset":76576,
			"target":34963
		},
		{
			"buffer":0,
			"byteLength":140868,
			"byteOffset":86584,
			"target":34962
		},
		{
			"buffer":0,
			"byteLength":93912,
			"byteOffset":227452,
			"target":34962
		},
		{
			"buffer":0,
			"byteLength":140868,
			"byteOffset":321364,
			"target":34962
		},
		{
			"buffer":0,
			"byteLength":46728,
			"byteOffset":462232,
			"target":34963
		},
		{
			"buffer":0,
			"byteLength":191520,
			"byteOffset":508960,
			"target":34962
		},
		{
			"buffer":0,
			"byteLength":127680,
			"byteOffset":700480,
			"target":34962
		},
		{
			"buffer":0,
			"byteLength":191520,
			"byteOffset":828160,
			"target":34962
		},
		{
			"buffer":0,
			"byteLength":64752,
			"byteOffset":1019680,
			"target":34963
		},
		{
			"buffer":0,
			"byteLength":233988,
			"byteOffset":1084432,
			"target":34962
		},
		{
			"buffer":0,
			"byteLength":155992,
			"byteOffset":1318420,
			"target":34962
		},
		{
			"buffer":0,
			"byteLength":233988,
			"byteOffset":1474412,
			"target":34962
		},
		{
			"buffer":0,
			"byteLength":82824,
			"byteOffset":1708400,
			"target":34963
		},
		{
			"buffer":0,
			"byteLength":31080,
			"byteOffset":1791224,
			"target":34962
		},
		{
			"buffer":0,
			"byteLength":20720,
			"byteOffset":1822304,
			"target":34962
		},
		{
			"buffer":0,
			"byteLength":31080,
			"byteOffset":1843024,
			"target":34962
		},
		{
			"buffer":0,
			"byteLength":9960,
			"byteOffset":1874104,
			"target":34963
		},
		{
			"buffer":0,
			"byteLength":31140,
			"byteOffset":1884064,
			"target":34962
		},
		{
			"buffer":0,
			"byteLength":20760,
			"byteOffset":1915204,
			"target":34962
		},
		{
			"buffer":0,
			"byteLength":31140,
			"byteOffset":1935964,
			"target":34962
		},
		{
			"buffer":0,
			"byteLength":9960,
			"byteOffset":1967104,
			"target":34963
		},
		{
			"buffer":0,
			"byteLength":9696,
			"byteOffset":1977064,
			"target":34962
		},
		{
			"buffer":0,
			"byteLength":6464,
			"byteOffset":1986760,
			"target":34962
		},
		{
			"buffer":0,
			"byteLength":9696,
			"byteOffset":1993224,
			"target":34962
		},
		{
			"buffer":0,
			"byteLength":3264,
			"byteOffset":2002920,
			"target":34963
		},
		{
			"buffer":0,
			"byteLength":22848,
			"byteOffset":2006184,
			"target":34962
		},
		{
			"buffer":0,
			"byteLength":15232,
			"byteOffset":2029032,
			"target":34962
		},
		{
			"buffer":0,
			"byteLength":22848,
			"byteOffset":2044264,
			"target":34962
		},
		{
			"buffer":0,
			"byteLength":7752,
			"byteOffset":2067112,
			"target":34963
		},
		{
			"buffer":0,
			"byteLength":33072,
			"byteOffset":2074864,
			"target":34962
		},
		{
			"buffer":0,
			"byteLength":22048,
			"byteOffset":2107936,
			"target":34962
		},
		{
			"buffer":0,
			"byteLength":33072,
			"byteOffset":2129984,
			"target":34962
		},
		{
			"buffer":0,
			"byteLength":11232,
			"byteOffset":2163056,
			"target":34963
		},
		{
			"buffer":0,
			"byteLength":16464,
			"byteOffset":2174288,
			"target":34962
		},
		{
			"buffer":0,
			"byteLength":10976,
			"byteOffset":2190752,
			"target":34962
		},
		{
			"buffer":0,
			"byteLength":16464,
			"byteOffset":2201728,
			"target":34962
		},
		{
			"buffer":0,
			"byteLength":6360,
			"byteOffset":2218192,
			"target":34963
		},
		{
			"buffer":0,
			"byteLength":67272,
			"byteOffset":2224552,
			"target":34962
		},
		{
			"buffer":0,
			"byteLength":44848,
			"byteOffset":2291824,
			"target":34962
		},
		{
			"buffer":0,
			"byteLength":67272,
			"byteOffset":2336672,
			"target":34962
		},
		{
			"buffer":0,
			"byteLength":27048,
			"byteOffset":2403944,
			"target":34963
		},
		{
			"buffer":0,
			"byteLength":51720,
			"byteOffset":2430992,
			"target":34962
		},
		{
			"buffer":0,
			"byteLength":34480,
			"byteOffset":2482712,
			"target":34962
		},
		{
			"buffer":0,
			"byteLength":51720,
			"byteOffset":2517192,
			"target":34962
		},
		{
			"buffer":0,
			"byteLength":18528,
			"byteOffset":2568912,
			"target":34963
		},
		{
			"buffer":0,
			"byteLength":34812,
			"byteOffset":2587440,
			"target":34962
		},
		{
			"buffer":0,
			"byteLength":23208,
			"byteOffset":2622252,
			"target":34962
		},
		{
			"buffer":0,
			"byteLength":34812,
			"byteOffset":2645460,
			"target":34962
		},
		{
			"buffer":0,
			"byteLength":14904,
			"byteOffset":2680272,
			"target":34963
		},
		{
			"buffer":0,
			"byteLength":13320,
			"byteOffset":2695176,
			"target":34962
		},
		{
			"buffer":0,
			"byteLength":8880,
			"byteOffset":2708496,
			"target":34962
		},
		{
			"buffer":0,
			"byteLength":13320,
			"byteOffset":2717376,
			"target":34962
		},
		{
			"buffer":0,
			"byteLength":4872,
			"byteOffset":2730696,
			"target":34963
		},
		{
			"buffer":0,
			"byteLength":12312,
			"byteOffset":2735568,
			"target":34962
		},
		{
			"buffer":0,
			"byteLength":8208,
			"byteOffset":2747880,
			"target":34962
		},
		{
			"buffer":0,
			"byteLength":12312,
			"byteOffset":2756088,
			"target":34962
		},
		{
			"buffer":0,
			"byteLength":4584,
			"byteOffset":2768400,
			"target":34963
		},
		{
			"buffer":0,
			"byteLength":14788,
			"byteOffset":2772984
		},
		{
			"buffer":0,
			"byteLength":44364,
			"byteOffset":2787772
		},
		{
			"buffer":0,
			"byteLength":59152,
			"byteOffset":2832136
		},
		{
			"buffer":0,
			"byteLength":44364,
			"byteOffset":2891288
		},
		{
			"buffer":0,
			"byteLength":44364,
			"byteOffset":2935652
		},
		{
			"buffer":0,
			"byteLength":59152,
			"byteOffset":2980016
		},
		{
			"buffer":0,
			"byteLength":44364,
			"byteOffset":3039168
		}
	],
	"buffers":[
		{
			"byteLength":3083532,
			"uri":"data:application/octet-stream;base64,"
		}
	]
}
