<?xml version="1.0" encoding="UTF-8" standalone="no"?>
<svg
   version="1.1"
   id="Layer_1"
   x="0px"
   y="0px"
   width="288909.31"
   viewBox="0 0 288909.31 578849"
   enable-background="new 0 0 768 768"
   xml:space="preserve"
   height="578849"
   xmlns="http://www.w3.org/2000/svg"
   xmlns:svg="http://www.w3.org/2000/svg"><defs
   id="defs21" />
<path
   fill="#000000"
   opacity="1"
   stroke="none"
   d="m -142922.88,-6403.8037 c 16.29,-28.8419 39.11,-49.2595 71.29,-57.5915 30.53,-7.9034 59.36,-2.9417 85.32,14.8636 32.46,22.267 49.05,54.1453 54.27,92.7294 3.2,23.7489 -2.01,45.6633 -12.64,66.5693 -1.99,3.9147 -1.38,6.094 1.23,9.1048 24.56,28.318 48.97,56.7564 73.47,85.1301 2.15,2.4902 4.17,4.9081 2.56,8.4473 -1.64,3.6388 -4.94,3.3699 -8.14,3.3689 -45.66,-0.015 -91.32,-0.014 -136.98,-0.017 -2.48,-2e-4 -4.96,0 -7.43,0 -0.15,0.3304 -0.29,0.6609 -0.44,0.9913 4.65,3.7943 9.37,7.4909 13.91,11.404 8.46,7.2854 14.12,16.2316 16.31,27.3426 2.71,13.7354 -2.71,24.7646 -11.27,34.7227 -9.23,10.7532 -20.7,18.7824 -32.91,25.7333 -3.88,2.2099 -5.07,4.8889 -5.06,9.2359 0.14,51.3251 0.17,102.6509 -0,153.9756 -0,5.0303 1.21,8.1754 6.07,9.955 3.35,1.2276 5.83,2.511 10,4.8469 1.49,1.1017 2.5,1.5905 4.66,3.2164 5.79,4.5328 11.84,8.6893 17.06,14.0984 11.39,11.7963 17.33,25.589 17.64,42.1605 0.64,34.441 -10.66,64.9918 -29.13,93.3969 -8.01,12.313 -17.12,23.7912 -26.34,35.1955 -2.02,2.4918 -4.28,4.384 -7.67,3.269 -3.57,-1.1704 -3.71,-4.1728 -3.71,-7.3454 0,-59.3242 -0,-118.6484 0.1,-177.9723 0,-4.6419 -1.29,-7.1227 -5.75,-9.0168 -16.85,-7.1631 -33.99,-13.7498 -50.11,-22.5256 -10.56,-5.7479 -20.79,-12.0569 -28.5,-21.5844 -14.92,-18.4363 -14.18,-38.7383 -6.3,-59.4581 7.14,-18.772 21.18,-31.9957 37.05,-43.5195 15.54,-11.2902 32.6,-20.0677 49.21,-29.5782 2.91,-1.6689 4.41,-3.4661 4.39,-6.9969 -0.11,-27.3286 -0.1,-54.6579 -0.1,-81.987 0,-1.4654 0.25,-3.0181 -0.97,-4.5981 -2.25,0.048 -3.59,1.8678 -5.08,3.2551 -45.85,42.6687 -91.67,85.3643 -137.5,128.0499 -4.63,4.3143 -9.27,8.6139 -13.95,12.8801 -3.84,3.5067 -7.67,3.9478 -10.11,1.2509 -2.48,-2.7404 -1.88,-6.4781 1.9,-9.9943 25.87,-24.0455 51.79,-48.0287 77.66,-72.0691 23.07,-21.4311 46.09,-42.9087 69.12,-64.3722 0.93,-0.8713 2.17,-1.5545 2.29,-3.1343 -1.83,-1.4027 -3.9,-0.7825 -5.8,-0.7839 -52.83,-0.039 -105.66,-0.033 -158.48,-0.038 -1.83,-2e-4 -3.67,0.04 -5.5,-0.071 -3.8,-0.231 -5.89,-2.318 -5.73,-6.1144 0.15,-3.6413 2.54,-5.2132 5.99,-5.3509 1.67,-0.066 3.33,-0.044 5,-0.045 53.33,-0.015 106.65,-0.013 159.98,-0.076 3.75,-0 7.62,0.554 11.32,-1.0521 -0.26,-2.413 -2.29,-2.9327 -3.66,-3.9663 -25.18,-19.1252 -48.61,-40.0394 -67.22,-65.8521 -12.51,-17.3442 -21.98,-36.124 -26.19,-57.2565 -4.4,-22.0727 -0.6,-43.3631 6.59,-64.263 2.18,-6.304 4.89,-12.3864 8.28,-18.5636 m 10.08,116.2194 c 19.82,34.5071 48.63,60.2201 80.4,83.5162 1.88,-3.4231 1.58,-6.2892 1.58,-9.0903 0,-57.4745 0,-114.949 0,-172.4235 -0,-3.0641 -0.22,-6.1925 3.47,-7.4403 3.35,-1.1323 5.69,0.478 7.81,2.9389 25.16,29.3183 50.35,58.6157 75.55,87.9026 2.67,3.1005 5.45,6.099 8.12,9.0731 0.76,-0.4905 1.11,-0.6088 1.29,-0.8506 0.39,-0.5308 0.75,-1.1002 1.04,-1.6954 9.18,-19.0566 13.21,-38.8541 9.74,-60.0645 -4.56,-27.8547 -16.1,-51.9347 -36.82,-71.3885 -28.66,-26.9192 -69.54,-34.2001 -103.62,-17.1234 -41.85,20.9675 -60.81,57.048 -63.75,102.3442 -1.25,19.288 5.61,36.9433 15.17,54.3016 m 23.5,253.7727 c -4.74,4.4506 -9.27,9.0749 -13.19,14.3016 -7.4,9.8624 -11.56,20.947 -12.6,33.1639 -1.64,19.5132 9.36,31.7694 24.34,41.5874 13.3,8.7187 27.89,14.8742 42.5,20.9548 5.31,2.2113 10.34,5.2064 16.81,6.6155 v -152.9137 c -8.14,1.8819 -45.61,25.4189 -57.86,36.2905 m 142.73,-253.0829 c -23.87,-27.8257 -47.74,-55.6515 -72.25,-84.2145 v 167.2738 c 8.16,-5.5371 15.22,-11.0448 22.08,-16.7981 19.47,-16.3318 37.3,-34.1885 51.82,-55.2168 3.08,-4.4593 2.59,-7.3899 -1.65,-11.0444 m 12.89,16.2809 c -0.36,0.3365 -0.8,0.6177 -1.07,1.0174 -17.91,26.5287 -40.95,48.0206 -66.01,67.5779 -3.41,2.661 -7.46,4.6444 -10.77,8.618 h 145.23 c -1.2,-1.6961 -1.78,-2.6865 -2.51,-3.5426 -16.08,-18.6707 -32.06,-37.4264 -48.33,-55.9274 -5.25,-5.9744 -9.86,-12.5436 -16.54,-17.7433 m -85.61,484.6473 v 50.4385 c 1.24,-0.7754 1.6,-0.8885 1.79,-1.1307 21.34,-27.0296 38.17,-56.1768 41.38,-91.3301 0.92,-10.03 1.73,-20.266 -1.73,-30.1557 -5.45,-15.5581 -17.21,-25.3415 -30.71,-33.4485 -3.15,-1.8891 -5.98,-4.7441 -10.73,-4.8694 0,36.6804 0,73.0881 0,110.4959 m 19.46,-378.6186 c -6.06,-4.4824 -12.12,-8.9649 -19.02,-14.0685 v 85.3741 c 0.94,-0.074 1.51,0.049 1.87,-0.1707 12.43,-7.5479 24.45,-15.6242 32.03,-28.5592 2.97,-5.061 4.71,-10.3207 3.56,-16.6029 -2.08,-11.4191 -9.64,-18.6272 -18.44,-25.9728 z"
   id="path2"
   style="fill:#ffffff" />







</svg>
